# File created by Blade
# Date/Time:  Wed Sep 24 19:53:44 2014
# Frame Rate: 120.000 fps
#------------------------------------------------------
:FULLY-SPECIFIED
:DEGREES
1113
root -6.120303 32.821377 -4.143943 8.321232 3.103968 -0.537396
Spine -15.369821 -10.318030 4.463383
Head -2.130723 8.119277 13.061745
LeftShoulder -0.710906 -2.726936 32.827612
LeftArm 90.523673 -35.527409 -83.063067
LeftForeArm -59.790807 0.000000 30.999770
LeftHand -21.956290 0.000000 9.200502
LeftHandThumb1 -26.253704 0.000000 33.147579
RightShoulder -15.047263 11.799330 -16.548256
RightArm -8.861250 -21.873143 84.579481
RightForeArm -20.424000 -0.000000 17.849949
RightHand -6.873953 -0.000000 9.411748
RightHandThumb1 -24.326973 -0.000000 -32.862282
LeftUpLeg -1.860388 7.649615 4.174311
LeftLeg -2.288914 -0.000000 0.000000
LeftFoot -9.435477 4.254458 -18.182144
LeftToeBase 11.297820 -0.000000 -0.000000
RightUpLeg -3.417667 -7.639436 -3.376117
RightLeg 1.754314 -0.000000 -0.000000
RightFoot -7.722759 -5.730136 -13.420225
RightToeBase -0.669845 -0.000000 0.000000
1114
root -6.119027 32.821283 -4.139049 8.299846 3.082934 -0.545373
Spine -15.373890 -10.320320 4.453955
Head -2.159750 8.084794 13.173620
LeftShoulder -0.571002 -2.730254 32.728563
LeftArm 90.629632 -35.614477 -84.088746
LeftForeArm -59.309728 -0.000000 32.824668
LeftHand -21.816019 -0.000000 8.765226
LeftHandThumb1 -26.253704 0.000000 33.147579
RightShoulder -15.029166 11.774861 -16.492974
RightArm -8.866924 -21.755284 84.486352
RightForeArm -20.477113 -0.000000 17.918326
RightHand -6.883390 -0.000000 9.341834
RightHandThumb1 -24.326973 -0.000000 -32.862282
LeftUpLeg -1.827754 7.634885 4.182315
LeftLeg -2.288150 -0.000000 0.000000
LeftFoot -9.466852 4.284126 -18.248084
LeftToeBase 11.288442 -0.000000 -0.000000
RightUpLeg -3.400553 -7.591194 -3.378169
RightLeg 1.775873 -0.000000 -0.000000
RightFoot -7.754603 -5.728305 -13.381420
RightToeBase -0.580492 -0.000000 0.000000
1115
root -6.118729 32.821358 -4.135593 8.283739 3.085491 -0.550761
Spine -15.383893 -10.348611 4.445221
Head -2.203449 8.030094 13.287903
LeftShoulder -0.442285 -2.606890 32.560948
LeftArm 90.934835 -35.674659 -85.130533
LeftForeArm -58.802399 0.000000 34.611112
LeftHand -20.940756 -0.000000 8.158053
LeftHandThumb1 -26.253704 0.000000 33.147579
RightShoulder -15.007333 11.742608 -16.441534
RightArm -8.853877 -21.690715 84.398812
RightForeArm -20.511568 -0.000000 17.970522
RightHand -6.871810 -0.000000 9.318220
RightHandThumb1 -24.326973 -0.000000 -32.862282
LeftUpLeg -1.809505 7.611370 4.189662
LeftLeg -2.281612 -0.000000 0.000000
LeftFoot -9.475129 4.310508 -18.213273
LeftToeBase 11.245533 -0.000000 -0.000000
RightUpLeg -3.387551 -7.595098 -3.376927
RightLeg 1.793784 -0.000000 -0.000000
RightFoot -7.745107 -5.728388 -13.398211
RightToeBase -0.621481 -0.000000 0.000000
1116
root -6.118884 32.821049 -4.131533 8.261113 3.082328 -0.561712
Spine -15.379793 -10.351748 4.432649
Head -2.270079 7.955755 13.414652
LeftShoulder -0.261042 -2.518759 32.390089
LeftArm 91.135911 -35.776549 -86.079968
LeftForeArm -58.371613 -0.000000 36.574168
LeftHand -20.238409 0.000000 7.363992
LeftHandThumb1 -26.253704 0.000000 33.147579
RightShoulder -14.993685 11.732911 -16.397502
RightArm -8.870407 -21.641446 84.322820
RightForeArm -20.548975 -0.000000 18.015682
RightHand -6.864000 -0.000000 9.341976
RightHandThumb1 -24.326973 -0.000000 -32.862282
LeftUpLeg -1.783399 7.607050 4.206526
LeftLeg -2.271842 -0.000000 0.000000
LeftFoot -9.497969 4.313046 -18.203225
LeftToeBase 11.241527 -0.000000 -0.000000
RightUpLeg -3.368819 -7.562849 -3.371853
RightLeg 1.819243 -0.000000 -0.000000
RightFoot -7.765865 -5.737998 -13.337013
RightToeBase -0.605209 -0.000000 0.000000
1117
root -6.117920 32.820600 -4.127350 8.243482 3.088734 -0.563488
Spine -15.384711 -10.375779 4.417803
Head -2.343071 7.912047 13.532779
LeftShoulder -0.098293 -2.433292 32.248834
LeftArm 91.370862 -35.813146 -87.207265
LeftForeArm -57.842829 -0.000000 38.662415
LeftHand -19.667196 -0.000000 6.636873
LeftHandThumb1 -26.253704 0.000000 33.147579
RightShoulder -14.970793 11.701133 -16.347271
RightArm -8.854207 -21.619494 84.242404
RightForeArm -20.563655 -0.000000 18.047110
RightHand -6.861529 -0.000000 9.366982
RightHandThumb1 -24.326973 -0.000000 -32.862282
LeftUpLeg -1.760671 7.583102 4.211151
LeftLeg -2.266732 -0.000000 0.000000
LeftFoot -9.524454 4.317668 -18.249902
LeftToeBase 11.290301 -0.000000 -0.000000
RightUpLeg -3.349092 -7.568830 -3.372975
RightLeg 1.830776 -0.000000 -0.000000
RightFoot -7.768358 -5.739649 -13.357221
RightToeBase -0.646063 -0.000000 0.000000
1118
root -6.118041 32.820335 -4.123765 8.217184 3.089145 -0.571463
Spine -15.367377 -10.357999 4.388210
Head -2.438061 7.834755 13.683354
LeftShoulder 0.102319 -2.424992 32.081976
LeftArm 91.511734 -35.827127 -88.235624
LeftForeArm -57.268082 -0.000000 40.854494
LeftHand -19.000608 -0.000000 5.947879
LeftHandThumb1 -26.253704 0.000000 33.147579
RightShoulder -14.981728 11.689365 -16.298796
RightArm -8.859216 -21.620764 84.174513
RightForeArm -20.564321 0.000000 18.060342
RightHand -6.846845 0.000000 9.334713
RightHandThumb1 -24.326973 -0.000000 -32.862282
LeftUpLeg -1.733371 7.592875 4.224713
LeftLeg -2.252158 -0.000000 0.000000
LeftFoot -9.524620 4.303531 -18.185137
LeftToeBase 11.244848 -0.000000 -0.000000
RightUpLeg -3.328032 -7.544990 -3.368096
RightLeg 1.853709 -0.000000 -0.000000
RightFoot -7.775468 -5.765788 -13.351005
RightToeBase -0.657926 -0.000000 0.000000
1119
root -6.117356 32.819671 -4.121307 8.208141 3.112984 -0.576502
Spine -15.357819 -10.352348 4.369843
Head -2.593721 7.758857 13.807144
LeftShoulder 0.297719 -2.465606 31.912952
LeftArm 91.675837 -35.793148 -89.349969
LeftForeArm -56.845358 0.000000 43.077953
LeftHand -18.611921 -0.000000 6.142376
LeftHandThumb1 -26.253704 0.000000 33.147579
RightShoulder -15.016046 11.682266 -16.280023
RightArm -8.865730 -21.614007 84.125374
RightForeArm -20.582043 0.000000 18.072779
RightHand -6.822461 -0.000000 9.393741
RightHandThumb1 -24.326973 -0.000000 -32.862282
LeftUpLeg -1.726178 7.552993 4.234500
LeftLeg -2.247228 -0.000000 0.000000
LeftFoot -9.546833 4.314840 -18.198397
LeftToeBase 11.279163 -0.000000 -0.000000
RightUpLeg -3.319498 -7.562692 -3.365029
RightLeg 1.872887 -0.000000 -0.000000
RightFoot -7.778236 -5.778522 -13.357725
RightToeBase -0.688996 -0.000000 0.000000
1120
root -6.117113 32.819433 -4.119166 8.194209 3.131492 -0.579234
Spine -15.357628 -10.377293 4.333957
Head -2.684563 7.708264 13.996913
LeftShoulder 0.497334 -2.411243 31.780120
LeftArm 91.863864 -35.733700 -90.516571
LeftForeArm -56.258686 -0.000000 45.461942
LeftHand -17.905597 -0.000000 5.340683
LeftHandThumb1 -26.253704 0.000000 33.147579
RightShoulder -14.991829 11.761015 -16.248829
RightArm -8.961366 -21.638229 84.112080
RightForeArm -20.552383 -0.000000 18.050451
RightHand -6.803021 -0.000000 9.426528
RightHandThumb1 -24.326973 -0.000000 -32.862282
LeftUpLeg -1.713845 7.525475 4.240857
LeftLeg -2.241409 -0.000000 0.000000
LeftFoot -9.556027 4.321285 -18.201093
LeftToeBase 11.261341 -0.000000 -0.000000
RightUpLeg -3.306078 -7.562277 -3.363447
RightLeg 1.889972 -0.000000 -0.000000
RightFoot -7.798550 -5.785034 -13.327584
RightToeBase -0.660684 -0.000000 0.000000
1121
root -6.117558 32.819040 -4.116790 8.177020 3.157909 -0.587888
Spine -15.346522 -10.380760 4.306523
Head -2.826167 7.630382 14.114810
LeftShoulder 0.699751 -2.425789 31.616464
LeftArm 91.978141 -35.653169 -91.597309
LeftForeArm -55.653686 -0.000000 47.862632
LeftHand -17.275472 -0.000000 4.416107
LeftHandThumb1 -26.253704 0.000000 33.147579
RightShoulder -14.993471 11.760440 -16.231151
RightArm -8.951884 -21.755629 84.089829
RightForeArm -20.414192 -0.000000 17.965784
RightHand -6.738988 -0.000000 9.477181
RightHandThumb1 -24.326973 -0.000000 -32.862282
LeftUpLeg -1.704933 7.506833 4.255342
LeftLeg -2.227501 -0.000000 0.000000
LeftFoot -9.570303 4.308088 -18.205096
LeftToeBase 11.279664 -0.000000 -0.000000
RightUpLeg -3.288889 -7.568459 -3.356115
RightLeg 1.906539 -0.000000 -0.000000
RightFoot -7.809774 -5.787187 -13.320262
RightToeBase -0.659986 -0.000000 0.000000
1122
root -6.117266 32.818464 -4.115711 8.169792 3.195587 -0.596149
Spine -15.344437 -10.407010 4.286549
Head -2.990236 7.521970 14.256622
LeftShoulder 0.883451 -2.347168 31.487772
LeftArm 92.146622 -35.524939 -92.750439
LeftForeArm -54.831645 -0.000000 50.377586
LeftHand -16.537037 -0.000000 2.744759
LeftHandThumb1 -26.253704 0.000000 33.147579
RightShoulder -15.030846 11.723452 -16.207722
RightArm -8.869890 -21.851215 84.056826
RightForeArm -20.339567 -0.000000 17.876246
RightHand -6.734589 -0.000000 9.504469
RightHandThumb1 -24.326973 -0.000000 -32.862282
LeftUpLeg -1.704415 7.470345 4.270307
LeftLeg -2.220637 -0.000000 0.000000
LeftFoot -9.588848 4.303061 -18.213807
LeftToeBase 11.294956 -0.000000 -0.000000
RightUpLeg -3.281998 -7.597815 -3.345059
RightLeg 1.922433 -0.000000 -0.000000
RightFoot -7.816983 -5.794458 -13.311107
RightToeBase -0.667506 -0.000000 0.000000
1123
root -6.117171 32.817877 -4.113767 8.158298 3.231900 -0.600802
Spine -15.337836 -10.426394 4.260528
Head -3.150197 7.428504 14.364979
LeftShoulder 1.108859 -2.281823 31.341187
LeftArm 92.303888 -35.433736 -93.835814
LeftForeArm -54.452336 0.000000 52.888388
LeftHand -16.053280 -0.000000 2.473275
LeftHandThumb1 -26.253704 0.000000 33.147579
RightShoulder -15.012960 11.754387 -16.187169
RightArm -8.920774 -21.866062 84.052029
RightForeArm -20.316116 0.000000 17.840232
RightHand -6.732939 -0.000000 9.525850
RightHandThumb1 -24.326973 -0.000000 -32.862282
LeftUpLeg -1.699715 7.459613 4.279492
LeftLeg -2.212010 -0.000000 0.000000
LeftFoot -9.597691 4.265706 -18.227553
LeftToeBase 11.317522 -0.000000 -0.000000
RightUpLeg -3.265793 -7.606226 -3.338835
RightLeg 1.934604 -0.000000 -0.000000
RightFoot -7.829451 -5.823308 -13.311227
RightToeBase -0.657252 -0.000000 0.000000
